HIERARCHY
ROOT Hips
{
	OFFSET 0.000000 83.214638 0.000000
	CHANNELS 6 Xposition Yposition Zposition Xrotation Yrotation Zrotation
	JOINT Pelvis
	{
		OFFSET 0.000000 0.000000 0.000000
		CHANNELS 3 Xrotation Yrotation Zrotation
		JOINT LeftUpLeg
		{
			OFFSET 8.479700 -4.795502 -0.379100
			CHANNELS 3 Xrotation Yrotation Zrotation
			JOINT LeftLeg
			{
				OFFSET 0.024144 -32.555107 0.112900
				CHANNELS 3 Xrotation Yrotation Zrotation
				JOINT LeftFoot
				{
					OFFSET -0.024144 -32.638630 -3.012600
					CHANNELS 3 Xrotation Yrotation Zrotation
					JOINT LeftToeBase
					{
						OFFSET 0.970200 -13.225400 11.864200
						CHANNELS 3 Xrotation Yrotation Zrotation
						End Site
						{
							OFFSET 0.000000 12.319262 0.000000
						}
					}
					JOINT LFootTongue
					{
						OFFSET 1.142400 -1.059800 6.665200
						CHANNELS 3 Xrotation Yrotation Zrotation
						End Site
						{
							OFFSET 0.000000 12.319262 0.000000
						}
					}
				}
				JOINT LeftPantLeg
				{
					OFFSET 0.918482 -16.533964 -2.284700
					CHANNELS 3 Xrotation Yrotation Zrotation
					End Site
					{
						OFFSET 0.350399 24.744368 0.000000
					}
				}
			}
		}
		JOINT RightUpLeg
		{
			OFFSET -8.479700 -4.795502 -0.379100
			CHANNELS 3 Xrotation Yrotation Zrotation
			JOINT RightLeg
			{
				OFFSET -0.023144 -32.555092 0.112900
				CHANNELS 3 Xrotation Yrotation Zrotation
				JOINT RightFoot
				{
					OFFSET 0.023144 -32.638641 -3.012700
					CHANNELS 3 Xrotation Yrotation Zrotation
					JOINT RightToeBase
					{
						OFFSET -0.970200 -13.225400 11.864200
						CHANNELS 3 Xrotation Yrotation Zrotation
						End Site
						{
							OFFSET 0.000000 12.319244 0.000000
						}
					}
					JOINT RFootTongue
					{
						OFFSET -1.142200 -1.059800 6.665200
						CHANNELS 3 Xrotation Yrotation Zrotation
						End Site
						{
							OFFSET 0.000000 12.319243 0.000000
						}
					}
				}
				JOINT RightPantLeg
				{
					OFFSET -0.919482 -16.533978 -2.284800
					CHANNELS 3 Xrotation Yrotation Zrotation
					End Site
					{
						OFFSET -0.350400 24.744419 0.000000
					}
				}
			}
		}
	}
	JOINT Spine
	{
		OFFSET 0.000000 7.722000 1.166200
		CHANNELS 3 Xrotation Yrotation Zrotation
		JOINT Spine1
		{
			OFFSET 0.000000 12.024101 0.248800
			CHANNELS 3 Xrotation Yrotation Zrotation
			JOINT Spine2
			{
				OFFSET 0.000000 11.502998 -0.491200
				CHANNELS 3 Xrotation Yrotation Zrotation
				JOINT Neck
				{
					OFFSET 0.000000 18.430702 -3.123100
					CHANNELS 3 Xrotation Yrotation Zrotation
					JOINT Head
					{
						OFFSET 0.000000 9.051102 1.034000
						CHANNELS 3 Xrotation Yrotation Zrotation
						JOINT HairB
						{
							OFFSET 0.208400 24.786102 24.822300
							CHANNELS 3 Xrotation Yrotation Zrotation
							End Site
							{
								OFFSET 0.000000 32.263779 0.000000
							}
						}
						JOINT HairA
						{
							OFFSET -7.081100 24.428299 23.196600
							CHANNELS 3 Xrotation Yrotation Zrotation
							End Site
							{
								OFFSET 0.000000 32.263779 0.000000
							}
						}
						JOINT Hat
						{
							OFFSET 16.728800 15.048294 -15.439601
							CHANNELS 3 Xrotation Yrotation Zrotation
							End Site
							{
								OFFSET 0.000000 32.263779 0.000000
							}
						}
					}
				}
				JOINT LeftShoulder
				{
					OFFSET 6.197800 13.665199 -4.064700
					CHANNELS 3 Xrotation Yrotation Zrotation
					JOINT LeftArm
					{
						OFFSET 7.778100 -0.187103 -1.709300
						CHANNELS 3 Xrotation Yrotation Zrotation
						JOINT LeftForeArm
						{
							OFFSET 22.049376 0.000000 0.000000
							CHANNELS 3 Xrotation Yrotation Zrotation
							JOINT LeftHand
							{
								OFFSET 23.009392 0.000000 0.000000
								CHANNELS 3 Xrotation Yrotation Zrotation
								JOINT LeftHandThumb1
								{
									OFFSET 3.507191 -2.063065 3.133727
									CHANNELS 3 Xrotation Yrotation Zrotation
									JOINT LeftHandThumb2
									{
										OFFSET 3.101337 -1.790558 1.790558
										CHANNELS 3 Xrotation Yrotation Zrotation
										JOINT LeftHandThumb3
										{
											OFFSET 3.058640 -1.765907 1.765906
											CHANNELS 3 Xrotation Yrotation Zrotation
											End Site
											{
												OFFSET -0.415260 3.926476 -0.049563
											}
										}
									}
								}
								JOINT LeftHandIndex1
								{
									OFFSET 11.334419 -0.901459 3.706815
									CHANNELS 3 Xrotation Yrotation Zrotation
									JOINT LeftHandIndex2
									{
										OFFSET 3.283112 0.000000 0.000000
										CHANNELS 3 Xrotation Yrotation Zrotation
										JOINT LeftHandIndex3
										{
											OFFSET 3.323853 0.000000 0.000000
											CHANNELS 3 Xrotation Yrotation Zrotation
											End Site
											{
												OFFSET -1.135597 3.097809 0.402452
											}
										}
									}
								}
								JOINT LeftHandMiddle1
								{
									OFFSET 11.335861 0.000000 0.000000
									CHANNELS 3 Xrotation Yrotation Zrotation
									JOINT LeftHandMiddle2
									{
										OFFSET 3.410492 0.000000 0.000000
										CHANNELS 3 Xrotation Yrotation Zrotation
										JOINT LeftHandMiddle3
										{
											OFFSET 3.312172 0.000000 0.000000
											CHANNELS 3 Xrotation Yrotation Zrotation
											End Site
											{
												OFFSET -1.150200 3.080154 0.400270
											}
										}
									}
								}
								JOINT LeftHandRing1
								{
									OFFSET 11.514786 -0.013176 -3.003090
									CHANNELS 3 Xrotation Yrotation Zrotation
									JOINT LeftHandRing2
									{
										OFFSET 3.053307 0.000000 0.000000
										CHANNELS 3 Xrotation Yrotation Zrotation
										JOINT LeftHandRing3
										{
											OFFSET 3.295807 0.000000 0.000000
											CHANNELS 3 Xrotation Yrotation Zrotation
											End Site
											{
												OFFSET -1.281006 3.013344 0.375733
											}
										}
									}
								}
								JOINT LeftHandPinky1
								{
									OFFSET 10.518692 -0.960396 -5.730441
									CHANNELS 3 Xrotation Yrotation Zrotation
									JOINT LeftHandPinky2
									{
										OFFSET 2.861649 0.000000 0.000000
										CHANNELS 3 Xrotation Yrotation Zrotation
										JOINT LeftHandPinky3
										{
											OFFSET 2.863380 0.000000 0.000000
											CHANNELS 3 Xrotation Yrotation Zrotation
											End Site
											{
												OFFSET -0.843597 2.711159 0.369971
											}
										}
									}
								}
							}
							JOINT LSleeve
							{
								OFFSET 6.676277 -0.344902 -1.011730
								CHANNELS 3 Xrotation Yrotation Zrotation
								End Site
								{
									OFFSET 0.000000 14.885353 0.000000
								}
							}
						}
					}
				}
				JOINT RightShoulder
				{
					OFFSET -6.197800 13.665199 -4.064700
					CHANNELS 3 Xrotation Yrotation Zrotation
					JOINT RightArm
					{
						OFFSET -7.778100 -0.187103 -1.709300
						CHANNELS 3 Xrotation Yrotation Zrotation
						JOINT RightForeArm
						{
							OFFSET -22.049376 0.000000 0.000000
							CHANNELS 3 Xrotation Yrotation Zrotation
							JOINT RightHand
							{
								OFFSET -23.009392 0.000000 0.000000
								CHANNELS 3 Xrotation Yrotation Zrotation
								JOINT RightHandThumb1
								{
									OFFSET -3.507191 -2.063065 3.133727
									CHANNELS 3 Xrotation Yrotation Zrotation
									JOINT RightHandThumb2
									{
										OFFSET -3.101337 -1.790558 1.790558
										CHANNELS 3 Xrotation Yrotation Zrotation
										JOINT RightHandThumb3
										{
											OFFSET -3.058640 -1.765907 1.765906
											CHANNELS 3 Xrotation Yrotation Zrotation
											End Site
											{
												OFFSET 0.415260 3.926476 -0.049563
											}
										}
									}
								}
								JOINT RightHandIndex1
								{
									OFFSET -11.334419 -0.901459 3.706815
									CHANNELS 3 Xrotation Yrotation Zrotation
									JOINT RightHandIndex2
									{
										OFFSET -3.283112 0.000000 0.000000
										CHANNELS 3 Xrotation Yrotation Zrotation
										JOINT RightHandIndex3
										{
											OFFSET -3.323853 0.000000 0.000000
											CHANNELS 3 Xrotation Yrotation Zrotation
											End Site
											{
												OFFSET 1.135597 3.097809 0.402452
											}
										}
									}
								}
								JOINT RightHandMiddle1
								{
									OFFSET -11.335861 0.000000 0.000000
									CHANNELS 3 Xrotation Yrotation Zrotation
									JOINT RightHandMiddle2
									{
										OFFSET -3.410492 0.000000 0.000000
										CHANNELS 3 Xrotation Yrotation Zrotation
										JOINT RightHandMiddle3
										{
											OFFSET -3.312172 0.000000 0.000000
											CHANNELS 3 Xrotation Yrotation Zrotation
											End Site
											{
												OFFSET 1.150200 3.080154 0.400270
											}
										}
									}
								}
								JOINT RightHandRing1
								{
									OFFSET -11.514786 -0.013176 -3.003090
									CHANNELS 3 Xrotation Yrotation Zrotation
									JOINT RightHandRing2
									{
										OFFSET -3.053307 0.000000 0.000000
										CHANNELS 3 Xrotation Yrotation Zrotation
										JOINT RightHandRing3
										{
											OFFSET -3.295807 0.000000 0.000000
											CHANNELS 3 Xrotation Yrotation Zrotation
											End Site
											{
												OFFSET 1.281006 3.013344 0.375733
											}
										}
									}
								}
								JOINT RightHandPinky1
								{
									OFFSET -10.518692 -0.960396 -5.730441
									CHANNELS 3 Xrotation Yrotation Zrotation
									JOINT RightHandPinky2
									{
										OFFSET -2.861649 0.000000 0.000000
										CHANNELS 3 Xrotation Yrotation Zrotation
										JOINT RightHandPinky3
										{
											OFFSET -2.863380 0.000000 0.000000
											CHANNELS 3 Xrotation Yrotation Zrotation
											End Site
											{
												OFFSET 0.843597 2.711159 0.369971
											}
										}
									}
								}
							}
							JOINT RSleeve
							{
								OFFSET -6.676277 -0.344902 -1.011730
								CHANNELS 3 Xrotation Yrotation Zrotation
								End Site
								{
									OFFSET 0.000000 14.885353 0.000000
								}
							}
						}
					}
				}
				JOINT Backpack
				{
					OFFSET 0.000000 -2.471497 36.677502
					CHANNELS 3 Xrotation Yrotation Zrotation
					End Site
					{
						OFFSET 0.000000 20.427315 0.000000
					}
				}
				JOINT Hood
				{
					OFFSET 0.000000 18.754097 -10.431000
					CHANNELS 3 Xrotation Yrotation Zrotation
					JOINT Hood1
					{
						OFFSET 0.000000 -5.011002 -7.685901
						CHANNELS 3 Xrotation Yrotation Zrotation
						End Site
						{
							OFFSET 0.000000 9.175140 0.000000
						}
					}
				}
				JOINT LHoodieString
				{
					OFFSET 5.250500 16.397697 3.089900
					CHANNELS 3 Xrotation Yrotation Zrotation
					JOINT LHoodieString1
					{
						OFFSET 0.257700 -6.364304 3.694600
						CHANNELS 3 Xrotation Yrotation Zrotation
						JOINT LHoodieString2
						{
							OFFSET 0.000000 -9.643799 2.679100
							CHANNELS 3 Xrotation Yrotation Zrotation
							End Site
							{
								OFFSET 0.000000 10.009018 0.000000
							}
						}
					}
				}
				JOINT RHoodieString
				{
					OFFSET -5.250500 16.397697 3.089900
					CHANNELS 3 Xrotation Yrotation Zrotation
					JOINT RHoodieString1
					{
						OFFSET -0.257700 -6.364304 3.694600
						CHANNELS 3 Xrotation Yrotation Zrotation
						JOINT RHoodieString2
						{
							OFFSET 0.000000 -9.643799 2.679100
							CHANNELS 3 Xrotation Yrotation Zrotation
							End Site
							{
								OFFSET 0.000000 10.009018 0.000000
							}
						}
					}
				}
			}
			JOINT LBackpack_Strap
			{
				OFFSET 15.223200 -7.719803 -6.610900
				CHANNELS 3 Xrotation Yrotation Zrotation
				End Site
				{
					OFFSET 0.000000 16.040596 0.000000
				}
			}
			JOINT RBackpack_Strap
			{
				OFFSET -15.223000 -7.719803 -6.610900
				CHANNELS 3 Xrotation Yrotation Zrotation
				End Site
				{
					OFFSET 0.000000 16.040596 0.000000
				}
			}
		}
	}
	JOINT BoyFacialAnim_Joint
	{
		OFFSET 1.000000 -82.208099 -1.550900
		CHANNELS 3 Xrotation Yrotation Zrotation
		End Site
		{
			OFFSET 0.000000 30.012791 0.000000
		}
	}
}
MOTION
Frames: 4
Frame Time: 0.016667
-0.258331 77.263016 0.131952 -6.087191 -43.034980 -4.015871 -0.000000 0.000001 0.000000 -27.325101 5.711021 13.933734 33.960356 -14.110961 -0.201460 -4.093051 0.706017 -8.143573 -0.000000 -0.000002 -0.000000 -0.000000 -0.000002 -0.000000 0.000000 -0.000001 0.000000 -4.368551 -13.685250 -15.657119 32.702515 -9.019338 -0.425568 -20.501899 -4.055522 17.151587 0.000000 0.000001 -0.000000 0.000000 0.000001 -0.000000 -0.000001 0.000000 -0.000001 5.833540 4.645310 -1.245169 11.835726 9.038099 -3.084133 11.835727 9.038084 -3.084132 -4.303053 -1.272938 0.206307 -6.271937 20.437786 -0.377164 -0.000000 0.000000 -0.000000 -0.000000 0.000000 -0.000000 -0.000000 0.000000 -0.000000 1.387440 -0.696990 -7.876279 -14.260090 2.393795 -63.277120 9.865046 -47.524890 5.927943 16.172821 0.916329 18.795294 9.163594 4.814144 -5.499002 -0.335368 0.032560 0.783653 0.000002 -0.000002 -0.000000 -0.902037 -6.980923 -3.808435 0.026599 0.806456 -16.418901 -0.000002 -0.000001 0.000001 1.947544 9.681390 -14.539552 -0.461221 -1.564440 -21.881057 0.000003 -0.000003 0.000003 2.605843 14.896567 -31.345207 -0.570636 -2.704770 -32.012058 0.000001 0.000000 -0.000000 4.171064 18.494913 -34.987422 -0.706801 -5.788624 -39.372902 -0.000000 -0.000001 -0.000002 0.000002 -0.000003 0.000002 1.410928 9.461506 9.792741 1.220049 -24.270715 60.532920 -6.660701 41.858405 8.043845 6.225268 12.322325 11.673278 -8.895795 -4.903195 -0.383693 7.903388 -19.189681 -2.856939 0.000002 0.000000 -0.000002 -1.096335 -1.217228 4.525381 0.141701 -1.115734 16.942598 -0.000000 0.000002 0.000002 -0.670820 -2.905546 12.731497 -0.652522 1.804266 30.579508 -0.000001 0.000000 0.000002 2.418905 -7.406059 21.762685 -0.995458 3.769844 37.430635 -0.000001 -0.000004 0.000001 3.482215 -10.050671 24.322244 -1.467006 7.868252 41.092870 0.000001 -0.000000 0.000000 0.000000 -0.000000 -0.000001 0.000001 0.000001 0.000000 0.000001 0.000001 0.000000 0.000001 0.000001 0.000000 0.000001 0.000001 0.000000 0.000001 0.000001 -0.000000 0.000000 0.000001 -0.000000 0.000001 0.000001 0.000000 0.000001 0.000001 -0.000000 0.000000 0.000001 -0.000000 -0.000000 -0.000001 0.000000 -0.000000 -0.000001 0.000000 -0.000000 0.000001 0.000000 
-0.254760 77.259293 0.138475 -6.060440 -43.113407 -3.990566 0.000000 0.000001 0.000000 -27.326301 5.710588 13.920073 33.989180 -14.025522 -0.175866 -4.128781 0.714095 -8.178033 0.000000 -0.000001 0.000000 0.000000 -0.000001 -0.000000 -0.000000 0.000002 -0.000000 -4.448309 -13.682458 -15.667073 32.732449 -8.944441 -0.484899 -20.503400 -4.060154 17.162496 0.000000 0.000003 0.000000 0.000000 0.000003 0.000000 -0.000001 -0.000000 0.000001 5.828696 4.650678 -1.255863 11.826957 9.047793 -3.104679 11.826959 9.047797 -3.104677 -4.348295 -1.296192 0.185084 -6.207245 20.521763 -0.394174 -0.000000 0.000000 0.000000 -0.000000 0.000000 0.000000 -0.000000 0.000000 0.000000 1.387390 -0.696822 -7.876268 -14.262256 2.393789 -63.250666 9.848922 -47.561039 5.920500 16.146005 0.904693 18.680742 9.281168 4.985909 -5.486673 -0.249600 0.224377 0.816307 -0.000000 -0.000001 -0.000001 -0.895023 -6.979098 -3.983050 0.019740 0.784211 -16.611459 0.000002 -0.000000 -0.000002 1.943537 9.666302 -14.728979 -0.467828 -1.583371 -22.065394 0.000000 -0.000001 0.000002 2.597706 14.883728 -31.520298 -0.579608 -2.719021 -32.210469 -0.000001 -0.000004 -0.000001 4.160777 18.488380 -35.170495 -0.709427 -5.791664 -39.559247 0.000001 0.000001 -0.000004 -0.000003 -0.000001 0.000000 1.398779 9.503312 9.802040 1.235465 -24.253394 60.503605 -6.635579 41.828618 8.061786 6.205733 12.287854 11.583840 -8.744222 -4.912961 -0.267393 7.890850 -19.193887 -2.875771 -0.000000 0.000000 -0.000000 -1.094938 -1.224538 4.426559 0.143562 -1.121789 16.879887 -0.000000 -0.000001 0.000002 -0.667438 -2.920385 12.633003 -0.649449 1.799052 30.481898 -0.000000 0.000001 0.000002 2.423729 -7.418805 21.676027 -0.988826 3.761197 37.329354 -0.000000 -0.000002 0.000004 3.489142 -10.065725 24.227636 -1.459273 7.863627 40.993600 -0.000001 -0.000002 0.000002 0.000001 0.000001 -0.000002 0.000002 -0.000001 -0.000000 0.000002 -0.000001 -0.000000 0.000002 -0.000001 -0.000000 0.000002 -0.000001 -0.000000 0.000002 -0.000001 0.000000 0.000001 -0.000001 0.000001 0.000002 -0.000001 -0.000000 0.000002 -0.000001 0.000000 0.000001 -0.000001 0.000001 -0.000001 -0.000004 0.000001 -0.000001 -0.000004 0.000001 0.000000 0.000001 0.000000 
-0.253294 77.264839 0.137404 -6.030366 -43.179793 -3.955721 -0.000000 -0.000002 0.000000 -27.310452 5.710238 13.895240 33.956525 -13.942519 -0.147012 -4.127144 0.717560 -8.226440 -0.000000 -0.000003 -0.000000 -0.000000 -0.000003 -0.000000 -0.000000 -0.000006 -0.000001 -4.506169 -13.671431 -15.665947 32.724444 -8.908088 -0.545224 -20.491874 -4.059280 17.170541 -0.000000 0.000001 0.000000 -0.000000 0.000001 0.000000 0.000002 0.000001 -0.000000 5.825023 4.647772 -1.265155 11.819974 9.041231 -3.121164 11.819972 9.041241 -3.121164 -4.387867 -1.297849 0.163176 -6.136320 20.653459 -0.443795 -0.000001 0.000000 -0.000000 -0.000001 0.000000 -0.000000 -0.000001 0.000000 -0.000000 1.389711 -0.709913 -7.876829 -14.244239 2.394034 -63.227239 9.904580 -47.573145 5.947250 16.178300 0.914629 18.773776 9.414845 5.159748 -5.469230 -0.170200 0.412560 0.856132 0.000001 -0.000001 -0.000000 -0.885485 -6.977765 -4.153078 0.012767 0.761526 -16.807788 0.000001 -0.000002 0.000001 1.939534 9.651395 -14.916315 -0.474089 -1.601150 -22.238821 0.000003 -0.000000 0.000000 2.589863 14.871390 -31.688857 -0.588511 -2.733085 -32.406048 -0.000001 -0.000003 -0.000003 4.151098 18.482357 -35.342653 -0.711826 -5.794502 -39.734540 -0.000001 -0.000001 -0.000000 -0.000003 0.000003 -0.000003 1.393258 9.523889 9.813705 1.197308 -24.211982 60.500675 -6.605042 41.712696 8.037625 6.258863 12.244939 11.498245 -8.538361 -4.895331 -0.106996 7.856131 -19.205498 -2.927857 -0.000000 0.000000 -0.000000 -1.093472 -1.232164 4.323051 0.143914 -1.122951 16.867306 0.000001 0.000001 0.000004 -0.663463 -2.937944 12.524978 -0.646093 1.793343 30.374510 0.000001 0.000002 0.000000 2.430995 -7.439399 21.599234 -0.980318 3.750018 37.198928 -0.000001 0.000001 -0.000001 3.495827 -10.078039 24.121590 -1.450825 7.858596 40.884642 0.000001 -0.000001 0.000000 -0.000001 0.000000 -0.000005 0.000001 -0.000001 -0.000000 0.000001 -0.000001 -0.000000 0.000001 -0.000001 -0.000000 0.000001 -0.000001 -0.000000 0.000001 -0.000001 -0.000001 0.000001 -0.000001 0.000000 0.000001 -0.000001 -0.000000 0.000001 -0.000001 -0.000001 0.000001 -0.000001 0.000000 -0.000000 -0.000002 -0.000000 -0.000000 -0.000002 -0.000000 -0.000000 -0.000002 0.000000 
-0.249660 77.264954 0.140340 -5.980125 -43.252422 -3.909856 0.000000 0.000000 -0.000000 -27.326801 5.709842 13.883014 33.954718 -13.867633 -0.133632 -4.142044 0.722506 -8.260566 0.000000 0.000001 0.000000 0.000000 0.000001 0.000000 -0.000001 0.000004 -0.000000 -4.590724 -13.653517 -15.671398 32.738890 -8.865656 -0.602722 -20.487298 -4.063079 17.184131 0.000000 -0.000000 -0.000000 0.000000 -0.000000 -0.000000 0.000001 -0.000000 0.000003 5.819682 4.640568 -1.271955 11.809247 9.026352 -3.132223 11.809259 9.026342 -3.132224 -4.418641 -1.266524 0.119654 -6.071689 20.811250 -0.506489 -0.000000 0.000000 -0.000000 -0.000000 0.000000 -0.000000 -0.000000 0.000000 -0.000000 1.389215 -0.712560 -7.883960 -14.233988 2.393098 -63.219220 9.867928 -47.596286 5.922707 16.138902 0.892885 18.667038 9.527661 5.320410 -5.445007 -0.082366 0.613083 0.892575 0.000003 -0.000001 -0.000004 -0.878620 -6.976112 -4.318741 0.006555 0.741435 -16.982087 -0.000001 0.000002 -0.000005 1.935610 9.636924 -15.098094 -0.480070 -1.617968 -22.403403 0.000002 -0.000002 0.000003 2.581157 14.857784 -31.874731 -0.595912 -2.743336 -32.579534 -0.000001 -0.000000 0.000001 4.139522 18.469550 -35.515655 -0.714228 -5.797185 -39.900080 -0.000000 -0.000003 0.000001 -0.000002 0.000000 -0.000001 1.393276 9.550948 9.804896 1.182789 -24.200783 60.514363 -6.580822 41.627281 8.001254 6.320974 12.185651 11.442703 -8.394743 -4.917729 0.003159 7.849065 -19.207860 -2.938450 -0.000001 0.000001 -0.000001 -1.091893 -1.240393 4.212014 0.146041 -1.129850 16.796146 0.000000 0.000000 0.000002 -0.661693 -2.945906 12.408733 -0.642773 1.787650 30.268106 -0.000001 0.000001 0.000002 2.436804 -7.454667 21.485106 -0.971953 3.739012 37.070660 -0.000002 -0.000001 0.000000 3.502986 -10.091371 24.007345 -1.441693 7.853018 40.767111 -0.000002 -0.000001 -0.000005 0.000000 -0.000000 -0.000001 -0.000000 0.000001 -0.000001 -0.000000 0.000001 -0.000001 -0.000000 0.000001 -0.000001 -0.000000 0.000001 -0.000001 -0.000000 0.000001 -0.000001 -0.000000 -0.000000 0.000001 -0.000000 0.000001 -0.000001 -0.000000 0.000001 -0.000001 -0.000000 -0.000000 0.000001 0.000002 0.000002 -0.000000 0.000002 0.000002 -0.000000 0.000000 0.000000 -0.000000 
